<svg width="131" height="131" viewBox="0 0 131 131" fill="none" xmlns="http://www.w3.org/2000/svg">
<g clip-path="url(#clip0_10_24)">
<rect width="131" height="131" fill="white"/>
<path d="M100.297 0H30.7031C13.7463 0 0 13.7463 0 30.7031V100.297C0 117.254 13.7463 131 30.7031 131H100.297C117.254 131 131 117.254 131 100.297V30.7031C131 13.7463 117.254 0 100.297 0Z" fill="black"/>
<path d="M116.672 93.6125C115.182 94.1767 113.537 94.1756 112.049 93.6094C110.56 93.0432 109.33 91.9511 108.591 90.5396C103.954 83.5971 98.8323 76.9678 93.9101 70.1963L91.7757 67.3511C85.9145 75.2039 80.0533 82.7436 74.7043 90.5683C74.0076 91.9173 72.8442 92.9671 71.4309 93.522C70.0176 94.0768 68.4508 94.099 67.0224 93.5844L89.016 64.0792L68.5585 37.4186C70.0312 36.8868 71.6422 36.8795 73.1195 37.3979C74.5969 37.9162 75.8502 38.9285 76.6678 40.2638C81.4191 47.2068 86.6831 53.8361 91.918 60.864C97.182 53.8929 102.389 47.2349 107.254 40.3492C107.955 39.0221 109.119 37.9989 110.525 37.4742C111.931 36.9496 113.481 36.9602 114.879 37.5041L106.941 48.0317C103.385 52.7262 99.8849 57.4493 96.1862 62.0302C95.888 62.297 95.6494 62.6237 95.4861 62.989C95.3227 63.3543 95.2383 63.7499 95.2383 64.15C95.2383 64.5502 95.3227 64.9458 95.4861 65.3111C95.6494 65.6764 95.888 66.0031 96.1862 66.2698C102.986 75.2894 109.729 84.3371 116.672 93.6125ZM14.3281 63.7092C14.9258 60.864 15.2953 57.7625 16.1207 54.8606C21.0429 37.3623 41.1018 30.078 54.9013 40.9188C62.9818 47.2641 65.0021 56.255 64.604 66.384H19.0799C18.34 84.4799 31.3996 95.4056 48.1011 89.8289C50.8103 88.8596 53.2355 87.231 55.1579 85.0901C57.0803 82.9491 58.4393 80.3631 59.1122 77.5655C59.9944 74.7204 61.417 74.2368 64.1199 75.0617C63.6748 78.5255 62.4502 81.8434 60.5381 84.7658C58.6261 87.6882 56.0763 90.1391 53.0806 91.9341C48.1311 94.6409 42.4523 95.7134 36.8565 94.9979C31.2607 94.2825 26.0344 91.8159 21.9251 87.9508C17.8597 83.3798 15.4015 77.6041 14.9258 71.5052C14.9258 70.5381 14.5558 69.5704 14.3568 68.6601C14.338 67.0098 14.3284 65.3595 14.3281 63.7092ZM19.1367 62.4857H60.3076C60.0512 49.3693 51.7716 40.0652 40.7323 39.9803C28.4408 39.8094 19.649 48.9139 19.1081 62.4289L19.1367 62.4857Z" fill="white"/>
</g>
<defs>
<clipPath id="clip0_10_24">
<rect width="131" height="131" fill="white"/>
</clipPath>
</defs>
</svg>
