<svg width="27" height="27" viewBox="0 0 27 27" fill="none" xmlns="http://www.w3.org/2000/svg">
<path fill-rule="evenodd" clip-rule="evenodd" d="M13.5 0.757812L25.2 7.58341V19.4166L13.5 26.244L1.79999 19.4166V7.58341L13.5 0.756012V0.757812ZM13.5 7.20001C11.8291 7.20001 10.2267 7.86376 9.04522 9.04524C7.86374 10.2267 7.19999 11.8291 7.19999 13.5C7.19999 15.1709 7.86374 16.7733 9.04522 17.9548C10.2267 19.1363 11.8291 19.8 13.5 19.8H13.8276C15.5844 19.8 17.271 19.1016 18.5148 17.8596L18.6372 17.7372L17.3628 16.4628L17.2404 16.5852C16.3354 17.4907 15.1078 17.9996 13.8276 18H13.5C12.3065 18 11.1619 17.5259 10.318 16.682C9.47409 15.8381 8.99999 14.6935 8.99999 13.5C8.99999 12.3065 9.47409 11.1619 10.318 10.318C11.1619 9.47412 12.3065 9.00001 13.5 9.00001H13.8276C15.1074 9.00001 16.335 9.50941 17.2404 10.4148L17.3628 10.5372L18.6372 9.26281L18.5148 9.14041C17.8992 8.52503 17.1684 8.03693 16.3642 7.704C15.56 7.37106 14.698 7.19981 13.8276 7.20001H13.5Z" fill="#326EDC"/>
</svg>
