<svg width="36" height="36" viewBox="0 0 36 36" fill="none" xmlns="http://www.w3.org/2000/svg">
<path d="M6.63976 30.6011L4.11301 2.25H31.887L29.3569 30.5966L17.9831 33.75L6.63976 30.6011Z" fill="#1572B6"/>
<path d="M18 31.3403L27.1913 28.7921L29.3535 4.56863H18V31.3403Z" fill="#33A9DC"/>
<path d="M18 14.8399H22.6013L22.9185 11.2793H18V7.80188H26.7188L26.6355 8.7345L25.7816 18.3173H18V14.8399Z" fill="white"/>
<path d="M18.0214 23.8702L18.0056 23.8747L14.1334 22.8285L13.8859 20.0554H10.395L10.8821 25.515L18.0045 27.4927L18.0214 27.4882V23.8702Z" fill="#EBEBEB"/>
<path d="M22.3054 18.1699L21.8869 22.8263L18.009 23.8725V27.4905L25.137 25.515L25.1899 24.9278L25.794 18.1699H22.3054Z" fill="white"/>
<path d="M18.0124 7.80188V11.2793H9.61314L9.54339 10.4974L9.38476 8.7345L9.30151 7.80188H18.0124ZM18 14.8399V18.3173H14.1761L14.1064 17.5354L13.9489 15.7725L13.8656 14.8399H18Z" fill="#EBEBEB"/>
</svg>
