<svg width="56" height="19" viewBox="0 0 56 19" fill="none" xmlns="http://www.w3.org/2000/svg">
<g clip-path="url(#clip0_11_60)">
<path d="M42.3163 4.39685C43.6289 4.39685 44.8421 4.53177 46.3138 4.82122L45.2651 6.96515C44.4497 6.8107 45.1998 6.94445 44.5837 6.8866V7.19548L44.6233 8.44969L44.6429 10.071C44.6628 10.4761 44.6628 10.8815 44.6829 11.2867V12.0974C44.6829 14.645 44.4641 15.8414 43.8079 16.8256C42.8533 18.2732 41.2027 18.9873 38.8561 18.9873C37.6628 18.9873 36.6289 18.8136 35.5549 18.4082V15.6678H35.5551C36.6291 16.2081 37.7029 16.4589 38.8363 16.4589C40.8448 16.4589 41.7 15.6678 41.7 13.7763V13.7184C41.1035 14.0078 40.5067 14.1237 39.7114 14.1237C37.0267 14.1237 35.3162 12.406 35.3162 9.6849C35.3162 6.30726 37.842 4.39675 42.3162 4.39675L42.3163 4.39685ZM14.537 4.58972V11.4795C14.537 13.8534 14.358 14.992 13.8212 15.9763C13.3238 16.9221 12.6675 17.5202 11.3154 18.1765L8.47153 16.8641C9.82384 16.2466 10.48 15.7064 10.8976 14.8762C11.3352 14.027 11.4745 13.0427 11.4745 10.4567V4.58983L14.537 4.58972ZM51.0681 4.33879C54.1306 4.33879 56 6.21098 56 9.2409C56 12.3483 54.0513 14.2974 50.9487 14.2974C47.886 14.2974 45.9968 12.4254 45.9968 9.41476C45.997 6.28794 47.946 4.33879 51.0681 4.33879ZM20.4438 4.37754C22.0149 4.37754 23.0489 4.78269 23.5063 5.57401C23.7648 6.0179 23.8443 6.59682 23.8443 7.83214V13.8727C22.472 14.0656 20.742 14.2009 19.4693 14.2009C16.904 14.2009 15.7503 13.3321 15.7503 11.4023C15.7503 9.31785 17.2816 8.35299 21.0404 8.04411V7.38792C21.0404 6.84764 20.762 6.65478 19.9863 6.65478C18.8529 6.65478 17.5801 6.96345 16.3868 7.56189V5.26523C17.7393 4.64789 19.0318 4.37754 20.4438 4.37754ZM9.66492 0V13.7572C8.09397 14.0466 6.94039 14.1624 5.68772 14.1624C1.94884 14.1624 0 12.522 0 9.37613C0 6.34611 2.06828 4.37775 5.27002 4.37775C5.76712 4.37775 6.14502 4.41617 6.60242 4.53198V0H9.66492ZM30.1485 4.37764C31.7195 4.37764 32.8531 4.72495 33.5295 5.40046C34.1658 6.03722 34.3645 6.73194 34.3645 8.21819V14.0465H31.3019V8.33399C31.3019 7.19537 30.9042 6.77058 29.8105 6.77058C29.3929 6.77058 29.0151 6.80922 28.3985 6.98287V14.0465H25.336V5.05294C27.1456 4.58983 28.637 4.37764 30.1485 4.37764ZM21.1796 9.99368C19.151 10.1867 18.4948 10.4955 18.4948 11.2674C18.4948 11.8463 18.8728 12.1166 19.708 12.1166C20.1654 12.1166 20.583 12.0781 21.1796 11.9816V9.99368ZM51.0285 6.73205C49.8152 6.73205 49.1189 7.6778 49.1189 9.31807C49.1191 10.9586 49.8152 11.9043 51.0081 11.9043C52.1817 11.9043 52.8778 10.9585 52.8778 9.31807C52.8778 7.69702 52.2015 6.73205 51.0285 6.73205ZM5.56839 6.77058C4.01723 6.77058 3.12222 7.69702 3.12222 9.31807C3.12222 10.9007 3.97753 11.7692 5.54848 11.7692C5.88645 11.7692 6.16492 11.7499 6.60242 11.6921V6.92492C6.24444 6.80922 5.94617 6.77058 5.56839 6.77058ZM39.5523 7.21427C38.8168 7.61974 38.4386 8.35321 38.4386 9.39523C38.4386 10.8815 39.1945 11.7305 40.5467 11.7305C40.9643 11.7305 41.3025 11.6533 41.7001 11.5376V10.5149C41.7001 10.1674 41.6804 9.78128 41.6804 9.37613L41.6606 8.0059L41.6406 7.02161V6.7899H41.3223C40.7259 6.77058 40.0298 6.92492 39.5524 7.21437L39.5523 7.21427ZM14.537 0.0159218V3.06526H11.4745V0.0158156H14.537V0.0159218Z" fill="#27AF55"/>
</g>
<defs>
<clipPath id="clip0_11_60">
<rect width="56" height="19" fill="white"/>
</clipPath>
</defs>
</svg>
