<svg width="39" height="39" viewBox="0 0 39 39" fill="none" xmlns="http://www.w3.org/2000/svg">
<path d="M29.8594 0H9.14062C4.0924 0 0 4.0924 0 9.14062V29.8594C0 34.9076 4.0924 39 9.14062 39H29.8594C34.9076 39 39 34.9076 39 29.8594V9.14062C39 4.0924 34.9076 0 29.8594 0Z" fill="#F4F2ED"/>
<path d="M34.7344 27.8694C34.2909 28.0373 33.8012 28.037 33.358 27.8684C32.9147 27.6999 32.5485 27.3748 32.3287 26.9545C30.948 24.8877 29.4234 22.9141 27.958 20.8981L27.3225 20.0511C25.5776 22.389 23.8327 24.6336 22.2402 26.9631C22.0328 27.3647 21.6864 27.6772 21.2657 27.8424C20.8449 28.0076 20.3785 28.0142 19.9532 27.861L26.501 19.077L20.4106 11.1399C20.849 10.9816 21.3286 10.9794 21.7684 11.1337C22.2082 11.288 22.5814 11.5894 22.8248 11.9869C24.2393 14.0539 25.8064 16.0275 27.3649 18.1198C28.9321 16.0444 30.4822 14.0623 31.9306 12.0124C32.1392 11.6173 32.4858 11.3126 32.9043 11.1565C33.3229 11.0003 33.7843 11.0034 34.2007 11.1653L31.8374 14.2995C30.7786 15.6971 29.7367 17.1032 28.6356 18.467C28.5468 18.5464 28.4758 18.6437 28.4272 18.7524C28.3785 18.8612 28.3534 18.979 28.3534 19.0981C28.3534 19.2172 28.3785 19.335 28.4272 19.4438C28.4758 19.5525 28.5468 19.6498 28.6356 19.7292C30.6601 22.4144 32.6675 25.108 34.7344 27.8694ZM4.26562 18.9669C4.44356 18.1198 4.55355 17.1965 4.79929 16.3325C6.26468 11.1231 12.2364 8.95452 16.3447 12.1819C18.7503 14.071 19.3518 16.7477 19.2332 19.7632H5.68029C5.46 25.1505 9.34796 28.4032 14.3202 26.7429C15.1267 26.4544 15.8487 25.9695 16.4211 25.3322C16.9934 24.6948 17.3979 23.9249 17.5983 23.092C17.8609 22.245 18.2844 22.101 19.0891 22.3466C18.9566 23.3778 18.592 24.3656 18.0228 25.2356C17.4536 26.1056 16.6945 26.8353 15.8026 27.3697C14.3291 28.1755 12.6385 28.4948 10.9725 28.2818C9.30662 28.0688 7.7507 27.3345 6.52732 26.1838C5.317 24.823 4.58518 23.1035 4.44356 21.2878C4.44356 20.9999 4.33342 20.7118 4.27416 20.4408C4.26855 19.9495 4.26571 19.4582 4.26562 18.9669ZM5.6972 18.6026H17.9542C17.8778 14.6977 15.4129 11.9278 12.1264 11.9025C8.46711 11.8516 5.8497 14.5621 5.68867 18.5857L5.6972 18.6026Z" fill="black"/>
</svg>
