<svg width="23" height="23" viewBox="0 0 23 23" fill="none" xmlns="http://www.w3.org/2000/svg">
<g clip-path="url(#clip0_16_8)">
<path d="M19.5968 19.5973H16.189V14.2603C16.189 12.9876 16.1662 11.3493 14.4165 11.3493C12.6416 11.3493 12.37 12.736 12.37 14.1676V19.5969H8.96221V8.62194H12.2337V10.1218H12.2795C12.6069 9.56198 13.08 9.10144 13.6484 8.78924C14.2169 8.47704 14.8593 8.32486 15.5074 8.3489C18.9615 8.3489 19.5983 10.6209 19.5983 13.5766L19.5968 19.5973ZM5.1169 7.12182C4.02467 7.122 3.13908 6.23668 3.1389 5.14445C3.13872 4.05222 4.02395 3.16663 5.11618 3.16645C6.20841 3.16618 7.094 4.0515 7.09418 5.14373C7.09427 5.66824 6.88601 6.17131 6.5152 6.54227C6.14439 6.91323 5.64141 7.1217 5.1169 7.12182ZM6.82087 19.5973H3.40942V8.62194H6.82078V19.5973L6.82087 19.5973ZM21.2958 0.00152137H1.69699C0.770705 -0.0089005 0.0110762 0.733119 -0.000244141 1.65941V21.34C0.0107168 22.2667 0.770256 23.0094 1.6969 22.9997H21.2958C22.2244 23.0112 22.9869 22.2685 22.9998 21.34V1.65788C22.9865 0.729795 22.224 -0.0121349 21.2958 -5.97256e-06" fill="#0A66C2"/>
</g>
<defs>
<clipPath id="clip0_16_8">
<rect width="23" height="23" fill="white"/>
</clipPath>
</defs>
</svg>
