<svg width="29" height="29" viewBox="0 0 29 29" fill="none" xmlns="http://www.w3.org/2000/svg">
<g clip-path="url(#clip0_11_62)">
<path d="M22.2031 0H6.79688C3.04306 0 0 3.04306 0 6.79688V22.2031C0 25.9569 3.04306 29 6.79688 29H22.2031C25.9569 29 29 25.9569 29 22.2031V6.79688C29 3.04306 25.9569 0 22.2031 0Z" fill="#023430"/>
<path d="M19.3907 12.188C18.1971 6.92262 15.7094 5.52087 15.0748 4.53C14.8131 4.0935 14.5813 3.63975 14.381 3.17188C14.3474 3.63973 14.2858 3.93426 13.8882 4.28905C13.0899 5.0008 9.69938 7.76373 9.41403 13.7465C9.14815 19.3246 13.5148 22.7642 14.0916 23.1198C14.5352 23.3381 15.0755 23.1244 15.3391 22.924C17.444 21.4795 20.32 17.6281 19.393 12.188" fill="#10AA50"/>
<path d="M14.5617 20.1494C14.4518 21.5301 14.3731 22.3324 14.094 23.1214C14.094 23.1214 14.2772 24.4358 14.4059 25.8281H14.8611C14.9697 24.8476 15.1356 23.8743 15.3578 22.9132C14.7684 22.6232 14.5844 21.361 14.5617 20.1494Z" fill="#B8C4C2"/>
<path d="M15.357 22.914C14.7613 22.6388 14.589 21.35 14.5625 20.1495C14.7098 18.169 14.7527 16.1821 14.6912 14.1971C14.6599 13.1556 14.7059 4.55029 14.4346 3.29037C14.6202 3.71709 14.8341 4.13096 15.0748 4.52922C15.7094 5.52088 18.1978 6.92263 19.3907 12.1881C20.3199 17.6189 17.4596 21.46 15.357 22.914Z" fill="#12924F"/>
</g>
<defs>
<clipPath id="clip0_11_62">
<rect width="29" height="29" fill="white"/>
</clipPath>
</defs>
</svg>
