<svg width="25" height="27" viewBox="0 0 25 27" fill="none" xmlns="http://www.w3.org/2000/svg">
<path d="M21.9043 16.3371C21.4455 18.1107 20.5647 19.7235 19.3495 21.0153C18.1344 22.3071 16.6272 23.2328 14.978 23.7002C13.3288 24.1677 11.595 24.1607 9.94912 23.6799C8.30321 23.1991 6.80254 22.2613 5.59639 20.9597C4.39025 19.6581 3.52066 18.0381 3.07413 16.2609C2.62761 14.4837 2.6197 12.6113 3.05121 10.8297C3.48272 9.04822 4.33859 7.41976 5.5337 6.10636C6.72881 4.79295 8.2215 3.84038 9.86329 3.34338C9.98357 3.30155 10.1115 3.29228 10.2359 3.31637C10.3603 3.34046 10.4773 3.39718 10.5766 3.48154C10.676 3.56591 10.7546 3.67534 10.8056 3.80021C10.8566 3.92508 10.8784 4.06157 10.8691 4.19768C10.8689 4.26225 10.859 4.32635 10.8398 4.38753C10.4524 5.89779 10.4429 7.49201 10.8121 9.00757C11.1814 10.5231 11.9163 11.9058 12.9419 13.0144C13.9674 14.1231 15.247 14.9182 16.6499 15.3185C18.0528 15.7187 19.529 15.71 20.9277 15.293L21.1426 15.2508C21.3125 15.2494 21.4783 15.3071 21.6155 15.4153C21.7527 15.5236 21.854 15.6767 21.9043 15.852C21.9534 16.0093 21.9534 16.1798 21.9043 16.3371Z" fill="#222222"/>
</svg>
