<svg width="23" height="26" viewBox="0 0 23 26" fill="none" xmlns="http://www.w3.org/2000/svg">
<g clip-path="url(#clip0_11_51)">
<path d="M11.5 25.952C11.1429 25.952 10.8096 25.8566 10.5 25.6897L7.33332 23.8062C6.85714 23.544 7.09523 23.4486 7.23808 23.4009C7.88091 23.1864 7.99996 23.1387 8.6666 22.7571C8.73811 22.7094 8.83335 22.7333 8.90468 22.781L11.3333 24.2353C11.4286 24.283 11.5476 24.283 11.619 24.2353L21.1191 18.7279C21.2144 18.6803 21.262 18.5849 21.262 18.4657V7.47452C21.262 7.35532 21.2144 7.25996 21.1191 7.21227L11.619 1.72861C11.5238 1.68093 11.4048 1.68093 11.3333 1.72861L1.83326 7.21236C1.73803 7.26005 1.69041 7.37925 1.69041 7.47461V18.4657C1.69041 18.5611 1.73803 18.6803 1.83326 18.7279L4.42858 20.2299C5.83337 20.9451 6.7142 20.1107 6.7142 19.2763V8.42816C6.7142 8.28511 6.83334 8.14207 7 8.14207H8.21432C8.35718 8.14207 8.50003 8.26127 8.50003 8.42816V19.2762C8.50003 21.1597 7.47617 22.2564 5.69043 22.2564C5.14284 22.2564 4.71428 22.2564 3.50004 21.6604L0.999961 20.2299C0.380938 19.8722 0 19.2047 0 18.4894V7.49845C0 6.78323 0.380938 6.11569 0.999961 5.75798L10.5 0.250573C11.0953 -0.0831988 11.9047 -0.0831988 12.5 0.250573L22 5.75798C22.6191 6.1156 23 6.78314 23 7.49845V18.4895C23 19.2048 22.6191 19.8723 22 20.2299L12.5 25.7375C12.1904 25.8805 11.8333 25.9521 11.5 25.9521V25.952ZM14.4285 18.3941C10.2619 18.3941 9.40475 16.4868 9.40475 14.8655C9.40475 14.7225 9.5238 14.5795 9.69046 14.5795H10.9285C11.0714 14.5795 11.1905 14.6748 11.1905 14.8179C11.381 16.0814 11.9286 16.7014 14.4524 16.7014C16.4524 16.7014 17.3096 16.2484 17.3096 15.1756C17.3096 14.5556 17.0715 14.1026 13.9524 13.7926C11.3571 13.5304 9.73807 12.9582 9.73807 10.884C9.73807 8.95275 11.3571 7.80839 14.0714 7.80839C17.119 7.80839 18.619 8.85738 18.8095 11.1462C18.8095 11.2177 18.7857 11.2892 18.7381 11.3608C18.6905 11.4084 18.619 11.4561 18.5476 11.4561H17.3096C17.1904 11.4561 17.0715 11.3608 17.0476 11.2416C16.7619 9.93031 16.0238 9.50117 14.0714 9.50117C11.881 9.50117 11.619 10.2641 11.619 10.8363C11.619 11.5277 11.9286 11.7422 14.8809 12.1237C17.8095 12.5051 19.1904 13.0535 19.1904 15.1039C19.1666 17.202 17.4524 18.3941 14.4285 18.3941Z" fill="#539E43"/>
</g>
<defs>
<clipPath id="clip0_11_51">
<rect width="23" height="26" fill="white"/>
</clipPath>
</defs>
</svg>
