<svg width="117" height="94" viewBox="0 0 117 94" fill="none" xmlns="http://www.w3.org/2000/svg">
<path d="M92.9957 56.2328C94.2509 56.2164 95.4501 55.7145 96.3377 54.8339C97.2253 53.9532 97.7312 52.7635 97.7477 51.5182C97.7477 48.9037 95.6363 46.8037 92.9957 46.8037C90.3552 46.8037 88.2438 48.9037 88.2438 51.5182C88.2438 54.1432 90.3605 56.2328 92.9957 56.2328ZM69.5801 56.2328C70.8353 56.2164 72.0344 55.7145 72.9221 54.8339C73.8097 53.9532 74.3156 52.7635 74.332 51.5182C74.332 48.9037 72.2154 46.8037 69.5801 46.8037C66.9343 46.8037 64.8282 48.9037 64.8282 51.5182C64.8282 54.1432 66.9396 56.2328 69.5801 56.2328ZM104.33 82.6927C103.991 82.8797 103.721 83.1683 103.557 83.5173C103.394 83.8662 103.346 84.2576 103.42 84.6353C103.42 84.8873 103.42 85.1445 103.553 85.407C104.071 87.5962 105.108 91.0823 105.108 91.2135C105.108 91.5968 105.241 91.854 105.241 92.1165C105.241 92.2686 105.21 92.4192 105.152 92.5597C105.093 92.7002 105.006 92.8277 104.898 92.9351C104.789 93.0424 104.66 93.1274 104.518 93.1851C104.376 93.2428 104.225 93.2722 104.071 93.2715C103.807 93.2715 103.68 93.1455 103.42 93.0195L95.7527 88.6305C95.1929 88.3247 94.5705 88.1488 93.9324 88.116C93.5461 88.116 93.1545 88.116 92.8952 88.242C89.2545 89.2763 85.4869 89.7908 81.4599 89.7908C62.0924 89.7908 46.4979 76.8915 46.4979 60.8895C46.4979 44.8927 62.0924 31.9883 81.4599 31.9883C100.822 31.9883 116.417 44.8927 116.417 60.8895C116.417 69.5362 111.739 77.406 104.33 82.698V82.6927ZM82.9363 26.7698C82.4426 26.7535 81.9486 26.7447 81.4546 26.7435C59.3672 26.7435 41.2062 41.7585 41.2062 60.8947C41.2062 63.8032 41.6295 66.6172 42.4127 69.2947H41.9417C37.3182 69.2484 32.7209 68.5989 28.2681 67.3628C27.8765 67.2315 27.4849 67.2315 27.0933 67.2315C26.3113 67.248 25.5478 67.4709 24.8814 67.8773L15.6316 73.1535C15.367 73.2848 15.1077 73.416 14.8484 73.416C14.4708 73.4119 14.1098 73.2613 13.8427 72.9963C13.5756 72.7313 13.4238 72.3732 13.4197 71.9985C13.4197 71.61 13.5467 71.3527 13.679 70.9642C13.806 70.8382 14.9807 66.5858 15.6316 64.0133C15.6316 63.7508 15.7586 63.3675 15.7586 63.1102C15.7572 62.6602 15.6509 62.2166 15.448 61.814C15.2451 61.4115 14.9512 61.0609 14.5891 60.7898C5.59858 54.474 0 45.0765 0 34.6395C0 15.4612 18.8912 0 42.0687 0C61.9919 0 78.74 11.3872 82.9363 26.7645V26.7698ZM55.663 28.9643C58.6952 28.9643 61.0923 26.46 61.0923 23.5778C61.0923 20.5695 58.6952 18.1912 55.663 18.1912C52.6309 18.1912 50.2338 20.5695 50.2338 23.5778C50.2338 26.586 52.6309 28.9643 55.663 28.9643ZM27.8289 28.9643C30.861 28.9643 33.2634 26.46 33.2634 23.5778C33.2634 20.5695 30.861 18.1912 27.8289 18.1912C24.802 18.1912 22.3996 20.5695 22.3996 23.5778C22.3996 26.586 24.802 28.9643 27.8289 28.9643Z" fill="#222222"/>
</svg>
