<svg width="26" height="26" viewBox="0 0 26 26" fill="none" xmlns="http://www.w3.org/2000/svg">
<rect width="26" height="26" fill="white"/>
<path d="M20.1218 14.8536C20.3788 14.8502 20.6243 14.7466 20.806 14.5649C20.9877 14.3832 21.0913 14.1377 21.0946 13.8807C21.0946 13.3412 20.6624 12.9079 20.1218 12.9079C19.5812 12.9079 19.149 13.3412 19.149 13.8807C19.149 14.4224 19.5823 14.8536 20.1218 14.8536ZM15.3281 14.8536C15.585 14.8502 15.8305 14.7466 16.0122 14.5649C16.194 14.3832 16.2975 14.1377 16.3009 13.8807C16.3009 13.3412 15.8676 12.9079 15.3281 12.9079C14.7864 12.9079 14.3552 13.3412 14.3552 13.8807C14.3552 14.4224 14.7875 14.8536 15.3281 14.8536ZM22.4423 20.3136C22.3729 20.3521 22.3175 20.4117 22.284 20.4837C22.2505 20.5557 22.2407 20.6365 22.256 20.7144C22.256 20.7664 22.256 20.8195 22.2831 20.8737C22.3892 21.3254 22.6016 22.0447 22.6016 22.0718C22.6016 22.1509 22.6286 22.204 22.6286 22.2582C22.6286 22.2896 22.6224 22.3206 22.6104 22.3496C22.5984 22.3786 22.5807 22.4049 22.5585 22.4271C22.5362 22.4492 22.5098 22.4668 22.4808 22.4787C22.4517 22.4906 22.4206 22.4966 22.3892 22.4965C22.3351 22.4965 22.3091 22.4705 22.256 22.4445L20.6862 21.5388C20.5716 21.4757 20.4442 21.4394 20.3136 21.4327C20.2345 21.4327 20.1543 21.4327 20.1012 21.4587C19.3559 21.6721 18.5846 21.7782 17.7601 21.7782C13.7951 21.7782 10.6026 19.1165 10.6026 15.8145C10.6026 12.5136 13.7951 9.85075 17.7601 9.85075C21.7241 9.85075 24.9166 12.5136 24.9166 15.8145C24.9166 17.5987 23.959 19.2227 22.4423 20.3147V20.3136ZM18.0624 8.77392C17.9613 8.77056 17.8602 8.76875 17.7591 8.7685C13.2372 8.7685 9.51923 11.8668 9.51923 15.8156C9.51923 16.4157 9.6059 16.9964 9.76623 17.5489H9.66981C8.72326 17.5394 7.78207 17.4053 6.87048 17.1502C6.79031 17.1232 6.71015 17.1232 6.62998 17.1232C6.46988 17.1266 6.31357 17.1726 6.17715 17.2564L4.28348 18.3452C4.22931 18.3722 4.17623 18.3993 4.12315 18.3993C4.04583 18.3985 3.97192 18.3674 3.91725 18.3127C3.86258 18.2581 3.83149 18.1841 3.83065 18.1068C3.83065 18.0267 3.85665 17.9736 3.88373 17.8934C3.90973 17.8674 4.15023 16.9899 4.28348 16.4591C4.28348 16.4049 4.30948 16.3258 4.30948 16.2727C4.30919 16.1799 4.28743 16.0883 4.24589 16.0053C4.20436 15.9222 4.14418 15.8499 4.07006 15.7939C2.22948 14.4907 1.08331 12.5515 1.08331 10.3978C1.08331 6.44042 4.95081 3.25 9.69581 3.25C13.7746 3.25 17.2033 5.59975 18.0624 8.77283V8.77392ZM12.4789 9.22675C13.0996 9.22675 13.5904 8.71 13.5904 8.11525C13.5904 7.4945 13.0996 7.00375 12.4789 7.00375C11.8581 7.00375 11.3674 7.4945 11.3674 8.11525C11.3674 8.736 11.8581 9.22675 12.4789 9.22675ZM6.78056 9.22675C7.40131 9.22675 7.89315 8.71 7.89315 8.11525C7.89315 7.4945 7.40131 7.00375 6.78056 7.00375C6.1609 7.00375 5.66906 7.4945 5.66906 8.11525C5.66906 8.736 6.1609 9.22675 6.78056 9.22675Z" fill="#05D11A"/>
</svg>
